<svg xmlns="http://www.w3.org/2000/svg" viewBox="0 0 940 290.5"><path d="M28.7 26.6h222.5c5.3 0 9.7 4.3 9.7 9.7v222.5c0 5.3-4.3 9.7-9.7 9.7H28.7c-5.3 0-9.7-4.3-9.7-9.7V36.2c0-5.3 4.3-9.6 9.7-9.6z" style="fill:#4831d4"/><path d="M158.3 179v-11.5h27.8v34.4H93.7v-20.2l43.1-65.8h-14.5v11.5H94.4V93.1h89.5v20.2L141 179h17.3z" style="fill:#fff"/><path d="M383.8 177.9v-11.1h26.9V200h-89.3v-19.5L363 117h-14v11.1h-27V94.9h86.4v19.5L367 177.9h16.8zm82.8 22.1h-51.3v-22.2h6.8V117h-6.8V94.9h51.3v22.2h-6.8v60.8h6.8V200zm107.2-53.9v20.1H567v27c-4 2.3-9.8 4.3-17.4 6-7.6 1.8-15.8 2.6-24.6 2.6-16.8 0-30-4.4-39.6-13.3-9.5-8.9-14.3-22.6-14.3-41.1 0-19 4.7-32.8 14.2-41.5 9.5-8.6 23.1-13 40.7-13 8.6 0 16.6.9 24 2.7 7.5 1.8 13.1 3.8 16.9 6.1V134h-33.8v-6.3c0-3.8-.8-6.5-2.4-8.2-1.6-1.7-4.1-2.5-7.5-2.5-3.4 0-5.9.8-7.5 2.5-1.6 1.7-2.4 4.4-2.4 8.2v39.4c0 3.8.8 6.5 2.4 8.2 1.6 1.7 4.1 2.5 7.5 2.5 3.4 0 5.9-.8 7.5-2.5 1.6-1.7 2.4-4.4 2.4-8.2v-.9H526v-20.1h47.8zm87.4 53.9h-83.6v-22.2h6.8V117h-6.8V94.9h57v22.2h-12.4v60.8h12.2v-12.4h26.9V200zm55.9 0h-51.3v-22.2h6.8V117h-6.8V94.9h51.3v22.2h-6.8v60.8h6.8V200zM823.2 94.9v32.7H800v-10.5h-8.6v60.8h9.5V200h-56.7v-22.2h9.5V117h-8.6v10.5h-23.2V94.9h101.3zM919 200h-91.2v-22.2h6.8V117h-6.8V94.9H919v40.8h-30.3v-18.6h-16.3v21.3h11.9v15.4h-11.9v24h16.3v-21.3H919V200z" style="fill:#524ed2"/></svg>